/* XPM */
static char * img_e_xpm[] = {
"32 29 12 1",
" 	c None",
".	c #F7E5A7",
"+	c #F9E5A8",
"@	c #F8E6A7",
"#	c #F8E5A7",
"$	c #F8E3A6",
"%	c #F8E5A8",
"&	c #F7E4A7",
"*	c #F7E3A7",
"=	c #F9E6A6",
"-	c #F9E5A7",
";	c #F8E4A6",
"                                ",
"                .               ",
"               +@               ",
"               ##               ",
"               ##.              ",
"              @##@              ",
"              ####              ",
"              ####              ",
"             @####@             ",
"             ######             ",
"             ######             ",
" $############################$ ",
"   @########################%   ",
"    @######################&    ",
"     *####################      ",
"       @#################       ",
"        &##############&        ",
"          %###########          ",
"          ###########+          ",
"          ############          ",
"         =############+         ",
"         %############+         ",
"         ###### *######         ",
"        -#####    @####+        ",
"        %###&      &###+        ",
"        ##%          %##        ",
"       -#+            @#;       ",
"       @$              *+       ",
"                                "};
