/* XPM */
static char * img_left_xpm[] = {
"32 32 25 1",
" 	c None",
".	c #EBEB17",
"+	c #ECEC18",
"@	c #ECEC17",
"#	c #EAEA16",
"$	c #DDDC16",
"%	c #473C07",
"&	c #99930F",
"*	c #CFCE14",
"=	c #EAEA18",
"-	c #D0CE14",
";	c #100101",
">	c #7E760C",
",	c #A4A110",
"'	c #79760C",
")	c #EBEB18",
"!	c #5C5809",
"~	c #070000",
"{	c #CECE14",
"]	c #C0BF13",
"^	c #B2B011",
"/	c #EBEB16",
"(	c #B4B112",
"_	c #C2C012",
":	c #625909",
".....................+          ",
".....................+          ",
".....................+          ",
".....................@#######   ",
".............................   ",
".............................   ",
"...$%%&....&%%*......=          ",
"...-;;>....>;;*......+          ",
"...-;;>....>;;*......+          ",
"...-;;>....>;;*......@.......   ",
"...-;;>....>;;*..............   ",
"...-;;>....>;;*..............   ",
".....................+          ",
".....................+          ",
".....,''''''''$......+    )))   ",
".....!~~~~~~~~{......+    ...   ",
".....!~~~~~~~~{......+    ...   ",
".....]^^^^^^^^.......+    ...   ",
"    ..............    ...@......",
"    .............@    ..........",
"                      ..........",
"                      ..........",
"                      ..........",
"                      ..........",
"                      +++/......",
"    .................     ......",
"    .................     ......",
"    .................     ......",
"    .....(((_........     ..@+++",
"    .....;;;:........     ..=   ",
"    .....;;;:........     ..=   ",
"    .....;;;:........     ..=   "};
