/* XPM */
static char * img_right_xpm[] = {
"32 32 19 1",
" 	c None",
".	c #EAEA18",
"+	c #EBEB17",
"@	c #EAEA16",
"#	c #ECEC17",
"$	c #DDDC16",
"%	c #473C07",
"&	c #99930F",
"*	c #CFCE14",
"=	c #D0CE14",
"-	c #100101",
";	c #7E760C",
">	c #EBEB18",
",	c #79760C",
"'	c #B2B011",
")	c #070000",
"!	c #ECEC18",
"~	c #B4B112",
"{	c #625909",
"          .+++++++++++++++++++++",
"          .+++++++++++++++++++++",
"          .+++++++++++++++++++++",
"   @@@@@@@#+++++++++++++++++++++",
"   +++++++++++++++++++++++++++++",
"   +++++++++++++++++++++++++++++",
"          +++++++$%%&++++&%%*+++",
"          .++++++=--;++++;--*+++",
"          .++++++=--;++++;--*+++",
"   +++++++#++++++=--;++++;--*+++",
"   ++++++++++++++=--;++++;--*+++",
"   ++++++++++++++=--;++++;--*+++",
"          .+++++++++++++++++++++",
"          .+++++++++++++++++++++",
"   >>>    .++++++$,,,,,,,,'+++++",
"   +++    .++++++*)))))))),+++++",
"   +++    .++++++*)))))))),+++++",
"   +++    .++++++$''''''''*+++++",
"++++++++++>   #+++++++++++++    ",
"++++++++++    #+++++++++++++    ",
"++++++++++                      ",
"++++++++++                      ",
"++++++++++                      ",
"++++++++++                      ",
"++++++#!!!                      ",
"++++++    >+++++++++++++++++    ",
"++++++    >+++++++++++++++++    ",
"++++++    >+++++++++++++++++    ",
"!!!+++    >++++++++=~~~+++++    ",
"   +++    >++++++++{---+++++    ",
"   +++    >++++++++{---+++++    ",
"   +++    >++++++++{---+++++    "};
