/* XPM */
static char * img_c_xpm[] = {
"32 32 32 1",
" 	c None",
".	c #EABA16",
"+	c #ECB917",
"@	c #EBB917",
"#	c #ECBA16",
"$	c #000000",
"%	c #EBBA17",
"&	c #ECBA17",
"*	c #ECB818",
"=	c #EBBA16",
"-	c #A67F10",
";	c #99740E",
">	c #B48B11",
",	c #C29613",
"'	c #99740F",
")	c #B58B12",
"!	c #DDAE16",
"~	c #D0A214",
"{	c #A78010",
"]	c #CFA214",
"^	c #C29713",
"/	c #8B680E",
"(	c #A77F10",
"_	c #B58B11",
":	c #A68010",
"<	c #8B690E",
"[	c #DEAE16",
"}	c #EAB718",
"|	c #EBB718",
"1	c #EAB918",
"2	c #EBB817",
"3	c #EBB818",
"      .+@@@# $$$$$$$$$$$$$$$$$$$",
"    %@@@@@@@@+ $$$$$$$$$$$$$$$$$",
"   &@@@@@@@@@@@ $$$$$$$$$$$$$$$$",
"  &@@@@@@@@@@@@@ $$$$$$$$$$$$$$$",
" +@@@@@@@@@@@@@@%$$$$$$$$$$$$$$$",
" @@@@@@@@@@@@@@@@ $$$$$$$$$$$$$$",
"#@@@@@@@@@@@@@@@@*$$$$$$$$$$$$$$",
"=@@@@@@@@@@@@@@@@+$$$$$$$$$$$$$$",
"@@-;>,,')>!~{,']@@$$$$$$$$$$$$$$",
"@@-^>{'/(_:~~<('@@$$$$$$$$$$$$$$",
"+@@@@@[@@@[@@@@@@%$$$$$$$$$$$$$$",
"}@@@@@@@@@@@@@@@@*$$$$$$$$$$$$$$",
" @@@@@@@@@@@@@@@@ $$$$$$$$$$$$$$",
"$%@@@@@@@@@@@@@@+$$$$$$$$$$$$$$$",
"$ %@@@@@@@@@@@@& $$$$$$$$$$$$$$$",
"$$ %@@@@@@@@@@& $$$$$$$$$$$$$$$$",
"$$$ +@@@@@@@@| $$$$$$$$$$$$$$$$$",
"$$$$$ 12@@3* $$$$$$$$$$$$$$$$$$$",
"$$$$$$$$$$$$$$$$$$$$$$$$$$$$$$$$",
"$$$$$$$$$$$$$$$$$$$$$$$$$$$$$$$$",
"$$$$$$$$$$$$$$$$$$$$$$$$$$$$$$$$",
"$$$$$$$$$$$$$$$$$$$$$$$$$$$$$$$$",
"$$$$$$$$$$$$$$$$$$$$$$$$$$$$$$$$",
"$$$$$$$$$$$$$$$$$$$$$$$$$$$$$$$$",
"$$$$$$$$$$$$$$$$$$$$$$$$$$$$$$$$",
"$$$$$$$$$$$$$$$$$$$$$$$$$$$$$$$$",
"$$$$$$$$$$$$$$$$$$$$$$$$$$$$$$$$",
"$$$$$$$$$$$$$$$$$$$$$$$$$$$$$$$$",
"$$$$$$$$$$$$$$$$$$$$$$$$$$$$$$$$",
"$$$$$$$$$$$$$$$$$$$$$$$$$$$$$$$$",
"$$$$$$$$$$$$$$$$$$$$$$$$$$$$$$$$",
"$$$$$$$$$$$$$$$$$$$$$$$$$$$$$$$$"};
