/* XPM */
static char * img_c_xpm[] = {
"32 32 38 1",
" 	c None",
".	c #EABA16",
"+	c #EBB917",
"@	c #ECBA17",
"#	c #ECBA16",
"$	c #EBBB17",
"%	c #ECB917",
"&	c #ECB818",
"*	c #EBBA16",
"=	c #EBBA17",
"-	c #C29613",
";	c #8B680E",
">	c #99740F",
",	c #DDAE16",
"'	c #D0A214",
")	c #B48B12",
"!	c #A78010",
"~	c #A68010",
"{	c #B58B12",
"]	c #CFA214",
"^	c #B48B11",
"/	c #7E5D0C",
"(	c #DEAE16",
"_	c #8C680D",
":	c #553B08",
"<	c #8C690D",
"[	c #70520B",
"}	c #C29712",
"|	c #624609",
"1	c #6F520B",
"2	c #543B08",
"3	c #543A08",
"4	c #C29713",
"5	c #EAB718",
"6	c #EAB918",
"7	c #ECB817",
"8	c #EAB817",
"9	c #EBB817",
"            .+@++@+#            ",
"         #@+++++++++++#         ",
"       +++++++++++++++++$       ",
"      %++++++++++++++++++%      ",
"     %++++++++++++++++++++%     ",
"    %++++++++++++++++++++++%    ",
"   %++++++++++++++++++++++++%   ",
"  +++++++++++++++++++++++++++$  ",
"  ++++++++++++++++++++++++++++  ",
" #++++++++++++++++++++++++++++# ",
" ++++++++++++++++++++++++++++++ ",
" ++++++++++++++++++++++++++++++ ",
"#++++++++++++++++++++++++++++++&",
"*++++++++++++++++++++++++++++++=",
"=+-;>,'+++++)>!++++++~>!+++!++++",
"++{]~^)>/!(>>+/'__!(>+')>'':_'++",
"++{<;')>[,>;>>[>}>-)!+>+-|+/+_++",
"=+{]+'![1+|'>>/';[+2'')+;;'3/4++",
"*++++++++'>+++++++'/+++++++++++=",
"5++++++++++++++++++++++++++++++&",
" ++++++++++++++++++++++++++++++ ",
" =+++++++++++++++++++++++++++++ ",
" 6++++++++++++++++++++++++++++& ",
"  ++++++++++++++++++++++++++++  ",
"  7++++++++++++++++++++++++++8  ",
"   %++++++++++++++++++++++++%   ",
"    %++++++++++++++++++++++%    ",
"     %++++++++++++++++++++%     ",
"      %++++++++++++++++++%      ",
"       7++++++++++++++++8       ",
"         6+++++++++++@&         ",
"            69@++@9&            "};
